<svg xmlns="http://www.w3.org/2000/svg" id="Layer_1" data-name="Layer 1" width="25.03" height="25.36" viewBox="0 0 25.03 25.36"><defs><style>.cls-1{fill:white;}</style></defs><title>add_to_cart</title><path class="cls-1" d="M516.39-46.59l1-7.41H512a5.36,5.36,0,0,0-3.34-4.93,4.68,4.68,0,0,0-4.38.58A5.56,5.56,0,0,0,502-54h-6l1.79,14a3.5,3.5,0,0,0,3.47,3H509a6.49,6.49,0,0,0,5.55,3.14,6.51,6.51,0,0,0,6.5-6.5A6.51,6.51,0,0,0,516.39-46.59ZM503-54.13a4.53,4.53,0,0,1,1.86-3.4,3.68,3.68,0,0,1,3.46-.46A4.38,4.38,0,0,1,511-54.11V-54h-8v-.13ZM501.26-38a2.51,2.51,0,0,1-2.48-2.18L497.13-53h19.08l-.8,6.2a6.44,6.44,0,0,0-.89-.06,6.51,6.51,0,0,0-6.5,6.5,6.4,6.4,0,0,0,.46,2.36Zm13.26,3.14a5.51,5.51,0,0,1-5.5-5.5,5.5,5.5,0,0,1,5.5-5.5,5.5,5.5,0,0,1,5.5,5.5A5.5,5.5,0,0,1,514.52-34.86Z" transform="translate(-496 59.23)"/><path class="cls-1" d="M517-40.86h-2v-2a.5.5,0,0,0-.5-.5.5.5,0,0,0-.5.5v2h-2a.5.5,0,0,0-.5.5.51.51,0,0,0,.5.5h2v2a.51.51,0,0,0,.5.5.5.5,0,0,0,.5-.5v-2h2a.5.5,0,0,0,.5-.5A.5.5,0,0,0,517-40.86Z" transform="translate(-496 59.23)"/></svg>